<svg xmlns="http://www.w3.org/2000/svg" viewBox="0 0 500 100" fill="none">
  <g>
    <rect width="100" height="100" rx="20" fill="#4F46E5"/>
    
    <path d="M50 15L15 45H25V80C25 82.7614 27.2386 85 30 85H70C72.7614 85 75 82.7614 75 80V45H85L50 15Z" fill="white"/>
    
    <circle cx="40" cy="55" r="5" fill="#4F46E5"/>
    <path d="M40 62C35 62 31 65 31 69V78H49V69C49 65 45 62 40 62Z" fill="#4F46E5"/>

    <circle cx="60" cy="55" r="5" fill="#4F46E5"/>
    <path d="M60 62C55 62 51 65 51 69V78H69V69C69 65 65 62 60 62Z" fill="#4F46E5"/>
  </g>

  <text x="120" y="65" font-family="Arial, Helvetica, sans-serif" font-weight="bold" font-size="48" fill="#1F2937">
    Home <tspan fill="#4F46E5">Harmony</tspan>
  </text>
</svg>