<svg xmlns="http://www.w3.org/2000/svg" viewBox="0 0 500 100" fill="none">
  <defs>
    <linearGradient id="violetIndigoGradient" x1="0%" y1="0%" x2="0%" y2="100%">
      <stop offset="0%" stop-color="#9d00ffff" /> <stop offset="50%" stop-color="#6f29baff" /> <stop offset="100%" stop-color="#9d00ffff" /> </linearGradient>
  </defs>

  <g>
    <rect width="100" height="100" rx="20" fill="url(#violetIndigoGradient)"/>
    
    <path d="M50 15L15 45H25V80C25 82.7614 27.2386 85 30 85H70C72.7614 85 75 82.7614 75 80V45H85L50 15Z" fill="white"/>
    
    <circle cx="40" cy="55" r="5" fill="url(#violetIndigoGradient)"/>
    <path d="M40 62C35 62 31 65 31 69V78H49V69C49 65 45 62 40 62Z" fill="url(#violetIndigoGradient)"/>

    <circle cx="60" cy="55" r="5" fill="url(#violetIndigoGradient)"/>
    <path d="M60 62C55 62 51 65 51 69V78H69V69C69 65 65 62 60 62Z" fill="url(#violetIndigoGradient)"/>
  </g>

  <text x="120" y="65" font-family="Arial, Helvetica, sans-serif" font-weight="bold" font-size="48" fill="url(#violetIndigoGradient)">
    Home <tspan fill="url(#violetIndigoGradient)">Harmony</tspan>
  </text>
</svg>